<svg width="96" height="96" xmlns="http://www.w3.org/2000/svg" xmlns:xlink="http://www.w3.org/1999/xlink" xml:space="preserve" overflow="hidden"><g transform="translate(-90 -37)"><path d="M145.7 76.811C145.863 76.9701 146.039 77.1156 146.226 77.246 146.884 77.7357 147.68 78.0036 148.5 78.011L160 78.011C161.424 78.003 162.737 77.2367 163.444 76 163.803 75.3979 163.995 74.711 164 74.01 163.994 72.1115 162.659 70.4767 160.8 70.091 160.537 70.0364 160.269 70.0089 160 70.009L150.2 70.009C150.2 70.009 138.8 58.509 138.6 58.409 137.764 57.7124 136.767 57.2347 135.7 57.019 135.363 56.9604 135.022 56.9306 134.68 56.93 132.928 56.9424 131.264 57.6968 130.1 59.006L123.3 66.758 116.5 74.51C115.687 75.4336 115.182 76.5866 115.052 77.81 114.839 79.7552 115.562 81.6861 117 83.013 117.15 83.138 117.3 83.257 117.451 83.368 117.886 83.7009 118.376 83.9533 118.9 84.113L133.9 90.113 133.9 108.42C133.9 108.954 134.007 109.482 134.215 109.974 135.061 112.003 137.393 112.962 139.422 112.115 140.099 111.833 140.685 111.369 141.115 110.774 141.622 110.094 141.897 109.269 141.9 108.42L141.9 87.414C141.889 85.8183 140.953 84.3742 139.5 83.714L128.4 79.014 137.5 68.614ZM150.2 72.011 160 72.011C161.105 72.011 162 72.9064 162 74.011 162 75.1156 161.105 76.011 160 76.011L148.5 76.011C147.974 76.0022 147.474 75.7807 147.114 75.397L138.914 67.197 138.158 66.441 137.403 65.685 137.403 65.685 135.996 67.294 126.896 77.694 125.076 79.774 127.621 80.853 137.54 85.053 138.714 85.553C139.432 85.8967 139.891 86.6184 139.9 87.414L139.9 108.42C139.891 109.521 139.001 110.411 137.9 110.42 136.949 110.42 136.13 109.751 135.94 108.82 135.914 108.688 135.9 108.554 135.9 108.42L135.9 88.761 134.643 88.261 133.279 87.715 119.64 82.256 119.545 82.218 119.445 82.19C119.128 82.0832 118.833 81.9203 118.573 81.709 118.49 81.647 118.406 81.583 118.315 81.509 117.57 80.807 117.112 79.8527 117.032 78.832 117.032 78.794 117.017 78.756 117.015 78.718 117.014 78.7087 117.014 78.6993 117.015 78.69 116.957 77.6443 117.311 76.6176 118 75.829L129.51 62.709 131.6 60.327C132.027 59.8483 132.56 59.4758 133.156 59.239 133.82 58.9475 134.555 58.8575 135.269 58.98 135.874 59.0743 136.449 59.3092 136.947 59.666 137.061 59.7407 137.172 59.8211 137.278 59.907L137.378 59.994C138.27 60.834 144.767 67.367 148.778 71.417L149.365 72.009Z"/><path d="M122.495 94.424C119.693 92.5253 116.385 91.5122 113 91.516L113 91.516C103.633 91.4923 96.0199 99.0668 95.9962 108.434 95.9921 110.047 96.218 111.651 96.667 113.2 96.701 113.322 96.724 113.449 96.762 113.57 96.778 113.623 96.802 113.67 96.819 113.726 99.0845 120.751 105.619 125.515 113 125.524L113 125.524C122.389 125.526 130.001 117.916 130.003 108.527 130.004 102.871 127.192 97.584 122.5 94.424ZM113 123.524C104.712 123.51 98.0056 116.78 98.0199 108.492 98.0331 100.817 103.835 94.3893 111.469 93.593 111.769 93.563 112.075 93.56 112.379 93.547 112.587 93.539 112.791 93.516 113 93.516 121.286 93.516 128.004 100.234 128.004 108.52 128.004 116.807 121.286 123.524 113 123.524Z"/><path d="M179.234 103.469C176.445 94.504 166.916 89.4974 157.951 92.2865 148.986 95.0756 143.98 104.604 146.769 113.569 147.918 117.263 150.292 120.454 153.5 122.616 153.7 122.753 153.919 122.869 154.127 122.998 154.385 123.156 154.636 123.324 154.902 123.469 163.156 127.943 173.475 124.878 177.949 116.624 180.134 112.592 180.598 107.848 179.234 103.469ZM161.468 123.447C153.234 122.644 147.209 115.318 148.012 107.084 148.581 101.252 152.498 96.2864 158.038 94.376 159.631 93.8099 161.309 93.519 163 93.516 164.014 93.5138 165.025 93.6143 166.019 93.816 166.507 93.916 166.986 94.0393 167.456 94.186 175.368 96.6546 179.781 105.07 177.312 112.982 175.188 119.79 168.565 124.163 161.469 123.442Z"/><path d="M149 60.507C153.418 60.507 157 56.9253 157 52.507 157 48.0887 153.418 44.507 149 44.507 144.582 44.507 141 48.0887 141 52.507 141 56.9253 144.582 60.507 149 60.507ZM149 46.507C152.326 46.4944 155.033 49.1807 155.046 52.5071 155.059 55.8335 152.372 58.5403 149.046 58.5529 145.719 58.5655 143.013 55.8792 143 52.5528 142.996 51.4139 143.314 50.2971 143.919 49.332 145.011 47.5752 146.931 46.505 149 46.5Z"/></g></svg>